# xmcd CD database file
#
# Track frame offsets:
#	150
#	26362
#	54365
#	83086
#	107352
#	130226
#
# Disc length: 2130 seconds
#
# Revision: 0
# Processed by: cddbd v1.5PL3 Copyright (c) Steve Scherf et al.
# Submitted via: CDex 1.51
#
DISCID=3b085006
DTITLE=Bobby Jackson - Underfunk
DYEAR=2002
DGENRE=Jazz
TTITLE0=Serengeti Flower
TTITLE1=Walk in with me
TTITLE2=Underfunk
TTITLE3=Tails Out
TTITLE4=I shoulda' had it
TTITLE5=Walk away from the funk
EXTD=YEAR: 2002
EXTT0=
EXTT1=
EXTT2=
EXTT3=
EXTT4=
EXTT5=
PLAYORDER=
